<?xml version="1.0" encoding="UTF-8"?>
<svg width="2928px" height="116px" viewBox="0 0 2928 116" version="1.1" xmlns="http://www.w3.org/2000/svg" xmlns:xlink="http://www.w3.org/1999/xlink">
    <!-- Generator: Sketch 59 (86127) - https://sketch.com -->
    <title>Group 2</title>
    <desc>Created with Sketch.</desc>
    <defs>
        <polygon id="path-1" points="0 96.1461661 392.323299 96.1461661 392.323299 0 0 0"></polygon>
    </defs>
    <g id="Page-1" stroke="none" stroke-width="1" fill="none" fill-rule="evenodd">
        <g id="logos" transform="translate(-160.000000, -109.000000)">
            <g id="Group-2" transform="translate(160.000000, 86.000000)">
                <g id="logos">
                    <path d="M859.86,49.725 C859.86,53.5382308 856.788231,56.61 852.975,56.61 C849.161769,56.61 846.09,53.5382308 846.09,49.725 C846.09,45.9117692 849.055846,42.84 852.975,42.84 C856.894154,42.9459231 859.86,46.0176923 859.86,49.725 Z M831.521308,63.7036364 C831.521308,64.3295455 831.521308,65.3727273 831.521308,65.3727273 C831.521308,65.3727273 828.265104,61.2 821.332539,61.2 C809.883303,61.2 800.955,69.8584091 800.955,81.855 C800.955,93.7472727 809.778264,102.51 821.332539,102.51 C828.370142,102.51 831.521308,98.2329545 831.521308,98.2329545 L831.521308,100.006364 C831.521308,100.840909 832.151541,101.466818 832.991852,101.466818 L841.5,101.466818 L841.5,62.2431818 C841.5,62.2431818 833.727124,62.2431818 832.991852,62.2431818 C832.151541,62.2431818 831.521308,62.9734091 831.521308,63.7036364 Z M831.555,88.97375 C829.957964,91.31125 826.763892,93.33 822.931005,93.33 C816.116985,93.33 810.9,89.08 810.9,81.855 C810.9,74.63 816.116985,70.38 822.931005,70.38 C826.657423,70.38 830.064433,72.505 831.555,74.73625 L831.555,88.97375 Z M847.62,61.965 L857.565,61.965 L857.565,101.745 L847.62,101.745 L847.62,61.965 Z M997.9425,61.6007143 C991.009935,61.6007143 987.753731,65.8102381 987.753731,65.8102381 L987.753731,43.605 L977.67,43.605 L977.67,102.222619 C977.67,102.222619 985.442876,102.222619 986.178148,102.222619 C987.018459,102.222619 987.648692,101.485952 987.648692,100.749286 L987.648692,98.9602381 L987.648692,98.9602381 C987.648692,98.9602381 990.904896,103.275 997.837461,103.275 C1009.2867,103.275 1018.215,94.435 1018.215,82.4378571 C1018.215,70.4407143 1009.2867,61.6007143 997.9425,61.6007143 Z M996.238995,93.33 C992.299639,93.33 989.212036,91.31125 987.615,88.97375 L987.615,74.73625 C989.212036,72.61125 992.619046,70.38 996.238995,70.38 C1003.05302,70.38 1008.27,74.63 1008.27,81.855 C1008.27,89.08 1003.05302,93.33 996.238995,93.33 Z M972.315,78.277093 L972.315,101.745 L962.281047,101.745 L962.281047,79.4295349 C962.281047,72.9339535 960.19064,70.3147674 954.546541,70.3147674 C951.515451,70.3147674 948.37984,71.8862791 946.393953,74.1911628 L946.393953,101.640233 L936.36,101.640233 L936.36,62.2476744 L944.303547,62.2476744 C945.139709,62.2476744 945.766831,62.9810465 945.766831,63.7144186 L945.766831,65.3906977 C948.693401,62.3524419 952.560654,61.2 956.427907,61.2 C960.817762,61.2 964.475974,62.4572093 967.402544,64.9716279 C970.956235,67.9051163 972.315,71.6767442 972.315,78.277093 Z M912.262041,61.6007143 C905.329633,61.6007143 902.073502,65.8102381 902.073502,65.8102381 L902.073502,43.605 L891.99,43.605 L891.99,102.222619 C891.99,102.222619 899.7627,102.222619 900.497955,102.222619 C901.338247,102.222619 901.968466,101.485952 901.968466,100.749286 L901.968466,98.9602381 L901.968466,98.9602381 C901.968466,98.9602381 905.224597,103.275 912.157005,103.275 C923.605982,103.275 932.534083,94.435 932.534083,82.4378571 C932.639119,70.4407143 923.711018,61.6007143 912.262041,61.6007143 Z M910.558995,93.33 C906.619639,93.33 903.532036,91.31125 901.935,88.97375 L901.935,74.73625 C903.532036,72.61125 906.939046,70.38 910.558995,70.38 C917.373015,70.38 922.59,74.63 922.59,81.855 C922.59,89.08 917.373015,93.33 910.558995,93.33 Z M883.54792,61.2 C886.590996,61.2 888.165,61.7238372 888.165,61.7238372 L888.165,71.0481395 C888.165,71.0481395 879.77031,68.2194186 874.523628,74.1911628 L874.523628,101.745 L864.45,101.745 L864.45,62.2476744 C864.45,62.2476744 872.215088,62.2476744 872.949624,62.2476744 C873.789093,62.2476744 874.418695,62.9810465 874.418695,63.7144186 L874.418695,65.3906977 C876.3075,63.1905814 880.399912,61.2 883.54792,61.2 Z M778.926865,98.201036 C778.403514,96.9421171 777.880164,95.5782883 777.356813,94.4242793 C776.519452,92.5359009 775.682092,90.7524324 774.949401,89.0738739 L774.844731,88.968964 C767.622494,73.2324775 759.876906,57.2861712 751.712638,41.5496847 L751.398628,40.9202252 C750.561267,39.3465766 749.723907,37.668018 748.886546,35.9894595 C747.839845,34.1010811 746.793144,32.1077928 745.118422,30.2194144 C741.768979,26.023018 736.954154,23.715 731.825319,23.715 C726.591814,23.715 721.88166,26.023018 718.427546,30.0095946 C716.857495,31.897973 715.706124,33.8912613 714.659423,35.7796396 C713.822062,37.4581982 712.984701,39.1367568 712.14734,40.7104054 L711.83333,41.3398649 C703.773732,57.0763514 695.923475,73.0226577 688.701238,88.7591441 L688.596568,88.968964 C687.863877,90.6475225 687.026516,92.430991 686.189155,94.3193694 C685.665805,95.4733784 685.142454,96.7322973 684.619104,98.0961261 C683.258393,101.977793 682.839712,105.64964 683.363063,109.426396 C684.514434,117.29464 689.747939,123.903964 696.970176,126.841441 C699.691598,127.99545 702.517691,128.52 705.448454,128.52 C706.285815,128.52 707.332516,128.41509 708.169877,128.31018 C711.62399,127.890541 715.182773,126.736532 718.636887,124.743243 C722.928361,122.330315 727.010495,118.868288 731.615979,113.832613 C736.221464,118.868288 740.408268,122.330315 744.595072,124.743243 C748.049185,126.736532 751.607968,127.890541 755.062082,128.31018 C755.899442,128.41509 756.946143,128.52 757.783504,128.52 C760.714267,128.52 763.64503,127.99545 766.261782,126.841441 C773.588689,123.903964 778.717524,117.18973 779.868896,109.426396 C780.706256,105.75455 780.287576,102.082703 778.926865,98.201036 Z M731.7225,104.04 C726.054895,96.8540541 722.381447,90.0908108 721.12198,84.3843243 C720.597201,81.9537838 720.492246,79.8402703 720.807113,77.9381081 C721.017024,76.2472973 721.646758,74.7678378 722.486403,73.4997297 C724.48056,70.6464865 727.839141,68.85 731.7225,68.85 C735.605859,68.85 739.069395,70.5408108 740.958597,73.4997297 C741.798242,74.7678378 742.427976,76.2472973 742.637887,77.9381081 C742.952754,79.8402703 742.847799,82.0594595 742.32302,84.3843243 C741.063553,89.9851351 737.390105,96.7483784 731.7225,104.04 Z M773.994686,108.820847 C773.259331,114.295254 769.582559,119.032721 764.435079,121.138262 C761.913864,122.191033 759.182548,122.506864 756.451231,122.191033 C753.824966,121.875201 751.1987,121.032985 748.467384,119.453829 C744.685561,117.348288 740.903739,114.0847 736.491612,109.241956 C743.424954,100.714515 747.626979,92.924013 749.202738,85.9757278 C749.938093,82.7121392 750.043143,79.7643819 749.727991,77.0271786 C749.307789,74.3952524 748.362333,71.9738802 746.891624,69.8683393 C743.635055,65.1308721 738.172422,62.3936688 732.079486,62.3936688 C725.98655,62.3936688 720.523917,65.2361491 717.267348,69.8683393 C715.796639,71.9738802 714.851184,74.3952524 714.430981,77.0271786 C714.010779,79.7643819 714.115829,82.8174163 714.956234,85.9757278 C716.531994,92.924013 720.839069,100.819792 727.66736,109.347233 C723.360284,114.189977 719.473411,117.453565 715.691589,119.559106 C712.960272,121.138262 710.334007,121.980479 707.707741,122.29631 C704.871374,122.612141 702.140058,122.191033 699.723893,121.243539 C694.576413,119.137998 690.899641,114.400531 690.164287,108.926124 C689.849135,106.294198 690.059236,103.662272 691.109742,100.714515 C691.424894,99.6617441 691.950147,98.6089736 692.4754,97.3456491 C693.210755,95.6612163 694.05116,93.8715064 694.891565,92.0817966 L694.996615,91.8712425 C702.245108,76.1849622 710.018855,60.1828508 718.107753,44.6018475 L718.422905,43.9701852 C719.26331,42.3910295 720.103715,40.7065967 720.94412,39.127441 C721.784525,37.4430082 722.72998,35.8638524 723.885537,34.4952508 C726.091601,31.9686016 729.033018,30.6 732.289587,30.6 C735.546157,30.6 738.487574,31.9686016 740.693637,34.4952508 C741.849194,35.8638524 742.79465,37.4430082 743.635055,39.127441 C744.47546,40.7065967 745.315865,42.3910295 746.15627,43.9701852 L746.471422,44.6018475 C754.455269,60.2881278 762.229016,76.2902393 769.477509,91.9765196 L769.477509,92.0817966 C770.317914,93.7662294 771.053268,95.6612163 771.893673,97.3456491 C772.418926,98.6089736 772.94418,99.6617441 773.259331,100.714515 C774.099736,103.451718 774.414888,106.083644 773.994686,108.820847 Z" id="Shape" fill="#000000" fill-rule="nonzero"></path>
                    <g id="Uber_logo_2018" transform="translate(1091.655000, 43.605000)" fill="#010202" fill-rule="nonzero">
                        <path d="M10.7541207,45.8936665 C11.5440227,47.9695847 12.6376245,49.7445495 14.0351278,51.2185612 C15.4326311,52.6927726 17.0882592,53.8208978 19.0020119,54.6031365 C20.9159663,55.3853752 22.9968951,55.7763947 25.245,55.7763947 C27.4324053,55.7763947 29.4828834,55.3701977 31.3968378,54.5578038 C33.3107922,53.7454099 34.9815447,52.6023069 36.409297,51.1282952 C37.8370494,49.6540839 38.9459773,47.8942964 39.7358793,45.8485335 C40.5257812,43.8027707 40.9206313,41.5165648 40.9206313,38.9893167 L40.9206313,0 L50.49,0 L50.49,63.1770078 L41.0117816,63.1770078 L41.0117816,57.3105172 C38.8852777,59.5366123 36.3788464,61.2514665 33.4928911,62.4550796 C30.6067342,63.6582933 27.4931049,64.26 24.1513982,64.26 C20.7487902,64.26 17.5742596,63.6732711 14.627403,62.5000129 C11.6807481,61.3267547 9.12874171,59.6572332 6.97198876,57.4910491 C4.81523581,55.324865 3.11383098,52.7229279 1.86837925,49.6842391 C0.622725864,46.64575 0,43.2613744 0,39.5307129 L0,0 L9.56936866,0 L9.56936866,38.9893167 C9.56936866,41.5165648 9.9642188,43.8177484 10.7541207,45.8936665 Z" id="Path"></path>
                        <path d="M66.3657959,0 L66.3657959,23.0145044 C68.4428677,20.9086243 70.8465194,19.2390976 73.5763571,18.0055251 C76.3061947,16.7719527 79.2735809,16.1552663 82.4781215,16.1552663 C85.8016334,16.1552663 88.9169457,16.7869305 91.8250432,18.0504586 C94.7329437,19.3139867 97.2549757,21.0288462 99.3915331,23.195037 C101.528091,25.3612278 103.219491,27.9182396 104.465734,30.8664719 C105.711977,33.8149038 106.335,36.9436686 106.335,40.252966 C106.335,43.5620636 105.711977,46.6758506 104.465734,49.5939275 C103.219491,52.5122041 101.528091,55.0544379 99.3915331,57.2202293 C97.2549757,59.3864201 94.7329437,61.1012796 91.8250432,62.3648077 C88.9169457,63.6283358 85.8014364,64.26 82.4781215,64.26 C79.2733839,64.26 76.2914218,63.6433136 73.5318414,62.4097411 C70.7722609,61.1763683 68.3538363,59.506642 66.2767645,57.4007618 L66.2767645,63.1770044 L57.375,63.1770044 L57.375,0 L66.3657959,0 Z M67.3894604,46.4803402 C68.1905463,48.4058876 69.3034392,50.0905917 70.7277452,51.5346524 C72.1520511,52.978713 73.8137086,54.1220192 75.7127175,54.9643713 C77.6119234,55.8067234 79.6592524,56.2278994 81.8550985,56.2278994 C83.9916559,56.2278994 86.0092421,55.8067234 87.908251,54.9643713 C89.80726,54.1220192 91.4539476,52.9789127 92.8489046,51.5346524 C94.2434678,50.0907914 95.3561637,48.4058876 96.1869925,46.4803402 C97.0178212,44.5549926 97.4332355,42.4792678 97.4332355,40.252966 C97.4332355,38.0266642 97.0178212,35.9357618 96.1869925,33.9802589 C95.3561637,32.0247559 94.2434678,30.325074 92.8489046,28.8810133 C91.4541445,27.4371524 89.807457,26.308824 87.908251,25.4966272 C86.0090451,24.6844305 83.9914589,24.2780325 81.8550985,24.2780325 C79.718738,24.2780325 77.7009549,24.6842308 75.8019459,25.4966272 C73.902937,26.3090237 72.2412795,27.4371524 70.8167766,28.8810133 C69.3926676,30.325074 68.2650018,32.0247559 67.4341731,33.9802589 C66.6033444,35.9357618 66.1879299,38.0266642 66.1879299,40.252966 C66.1879299,42.4792678 66.5883745,44.5549926 67.3894604,46.4803402 Z" id="Shape"></path>
                        <path d="M111.935313,31.3893039 C113.11892,28.5309653 114.746896,26.0151451 116.818258,23.8416457 C118.88962,21.6681462 121.34622,19.9561472 124.18727,18.7056488 C127.028321,17.4551504 130.106093,16.83 133.420587,16.83 C136.675949,16.83 139.69459,17.4255037 142.476509,18.6163134 C145.258232,19.8073207 147.655307,21.4598286 149.667734,23.573837 C151.680162,25.6876478 153.24881,28.1888423 154.373089,31.0768276 C155.497762,33.9650105 156.06,37.1061787 156.06,40.5005299 L156.06,43.4482039 L119.21553,43.4482039 C119.511579,45.294206 120.103481,47.006205 120.991236,48.5840032 C121.879187,50.1619989 122.988733,51.5316772 124.320463,52.6928402 C125.652193,53.8542008 127.161514,54.7623785 128.848424,55.4171756 C130.535335,56.0721703 132.325578,56.3998654 134.219743,56.3998654 C139.605991,56.3998654 143.956362,54.1666772 147.270856,49.7004984 L153.751916,54.5238213 C151.502768,57.5608307 148.721045,59.9428454 145.406551,61.6696677 C142.091861,63.39649 138.363056,64.26 134.219939,64.26 C130.846118,64.26 127.694481,63.6642987 124.764635,62.473489 C121.834789,61.2826793 119.289788,59.6151504 117.129434,57.4712976 C114.969081,55.3274449 113.267436,52.8116247 112.024501,49.9236394 C110.781566,47.0356541 110.16,43.8942882 110.16,40.5001346 C110.16,37.284652 110.751706,34.2476425 111.935313,31.3893039 Z M124.409258,27.8609496 C121.893724,29.974958 120.221743,32.7886289 119.39312,36.3019622 L147.00447,36.3019622 C146.234978,32.7886289 144.592465,29.974958 142.076931,27.8609496 C139.561397,25.7471388 136.616818,24.6901346 133.243193,24.6901346 C129.869371,24.6901346 126.924792,25.7471388 124.409258,27.8609496 Z" id="Shape"></path>
                        <path d="M173.292006,28.5416502 C171.386998,30.6599924 170.434395,33.5348711 170.434395,37.1664871 L170.434395,63.495 L161.415,63.495 L161.415,17.1934027 L170.344885,17.1934027 L170.344885,22.9130271 C171.476113,21.0367524 172.949575,19.5538124 174.76527,18.464408 C176.580965,17.3748027 178.739091,16.83 181.239649,16.83 L184.365,16.83 L184.365,25.3640364 L180.61446,25.3640364 C177.637898,25.3642373 175.197014,26.423308 173.292006,28.5416502 Z" id="Path"></path>
                    </g>
                    <g id="Amazon_logo" transform="translate(1347.930000, 54.315000)" fill="#000000">
                        <path d="M173.220944,65.7244273 C156.962615,77.7395161 133.397157,84.15 113.107748,84.15 C84.6587082,84.15 59.0472784,73.6001724 39.6712411,56.0537565 C38.1489284,54.6739669 39.5129152,52.793564 41.3397011,53.8680767 C62.2502242,66.0663221 88.1052393,73.4048024 114.812744,73.4048024 C132.824769,73.4048024 152.639232,69.6683982 170.858306,61.9147706 C173.610651,60.7425588 175.912392,63.7219154 173.220944,65.7244273" id="path8"></path>
                        <path d="M179.025149,57.8576398 C176.919644,55.1903654 165.054549,56.5974121 159.728883,57.2214082 C158.106405,57.4171744 157.85871,56.0223575 159.320163,55.0190644 C168.770133,48.4487616 184.276508,50.3452209 186.084757,52.5475534 C187.893003,54.7621298 185.614118,70.1173174 176.733867,77.4461971 C175.371487,78.5718328 174.071033,77.9723158 174.677915,76.4796158 C176.671943,71.5610618 181.143035,60.5371495 179.025149,57.8576398" id="path10"></path>
                        <path d="M160.714862,8.76098305 L160.714862,2.37886755 C160.714862,1.4129921 161.434348,0.765 162.297734,0.765 L190.321747,0.765 C191.221111,0.765 191.940597,1.42521996 191.940597,2.37886755 L191.940597,7.84401396 C191.928614,8.76098305 191.173144,9.95915812 189.830096,11.8542305 L175.308453,32.9934662 C180.704611,32.8589864 186.400551,33.6781365 191.293063,36.4901823 C192.396273,37.1259468 192.696061,38.0551435 192.78,38.9721221 L192.78,45.7821602 C192.78,46.7113541 191.772717,47.7994835 190.717471,47.2370805 C182.095615,42.6277709 170.64378,42.1264946 161.110577,47.2859891 C160.139272,47.8239476 159.12,46.7480363 159.12,45.818834 L159.12,39.3511366 C159.12,38.3119047 159.131983,36.5390853 160.151255,34.9618976 L176.975265,10.362627 L162.333706,10.362627 C161.434348,10.362627 160.714862,9.71464022 160.714862,8.76098305" id="path12"></path>
                        <path d="M57.4699883,49.725 L48.9515739,49.725 C48.1368776,49.6644305 47.4899081,49.0465452 47.43,48.2590364 L47.43,4.05000837 C47.43,3.16558512 48.160837,2.4628872 49.0713819,2.4628872 L57.0147132,2.4628872 C57.8414043,2.49920884 58.5003439,3.14134675 58.5602547,3.94096135 L58.5602547,9.72000744 L58.7160059,9.72000744 C60.7886981,4.13480785 64.6824854,1.53 69.9301199,1.53 C75.2616164,1.53 78.5923072,4.13480785 80.9884855,9.72000744 C83.0491993,4.13480785 87.7337262,1.53 92.7537259,1.53 C96.3240326,1.53 100.229804,3.02019224 102.614004,6.36403885 C105.309703,10.0834615 104.75858,15.4869224 104.75858,20.224044 L104.746607,48.1257763 C104.746607,49.0101957 104.01577,49.725 103.105225,49.725 L94.5987832,49.725 C93.7481465,49.6644305 93.0652365,48.9738546 93.0652365,48.1257763 L93.0652365,24.6946185 C93.0652365,22.828851 93.2329577,18.1765425 92.8256151,16.4076912 C92.1906294,13.4394301 90.2856695,12.6034602 87.8175965,12.6034602 C85.7568827,12.6034602 83.6003258,13.9967304 82.7257186,16.2259664 C81.8511115,18.4551974 81.934979,22.1867279 81.934979,24.6946185 L81.934979,48.1257763 C81.934979,49.0101957 81.2041447,49.725 80.2935944,49.725 L71.7871665,49.725 C70.9245405,49.6644305 70.2536088,48.9738546 70.2536088,48.1257763 L70.241636,24.6946185 C70.241636,19.7636593 71.0443457,12.506539 64.9940042,12.506539 C58.8717598,12.506539 59.1113785,19.5819208 59.1113785,24.6946185 L59.1113785,48.1257763 C59.1113785,49.0101957 58.3805414,49.725 57.4699966,49.725" id="path14"></path>
                        <path d="M215.955285,0 C228.714376,0 235.62,11.1126918 235.62,25.2427393 C235.62,38.8944203 227.988727,49.725 215.955285,49.725 C203.425976,49.725 196.605,38.6123087 196.605,24.764377 C196.605,10.8305802 203.510632,0 215.955285,0 M216.027844,9.13792559 C209.690632,9.13792559 209.291476,17.8956016 209.291476,23.3538289 C209.291476,28.8243145 209.206871,40.5012233 215.955285,40.5012233 C222.619035,40.5012233 222.933482,31.0812016 222.933482,25.3408579 C222.933482,21.5630416 222.776258,17.0492767 221.651518,13.4676972 C220.684004,10.3522275 218.761078,9.13792559 216.027844,9.13792559" id="path16"></path>
                        <path d="M253.13433,49.725 L244.790305,49.725 C243.953541,49.6644305 243.281777,48.9738546 243.281777,48.1257763 L243.27,3.9046155 C243.340713,3.09288423 244.036053,2.4628872 244.884595,2.4628872 L252.651145,2.4628872 C253.381829,2.49920884 253.982882,3.00808002 254.147885,3.69865708 L254.147885,10.4590373 L254.301086,10.4590373 C256.646378,4.41346301 259.934479,1.53 265.721086,1.53 C269.480613,1.53 273.145859,2.92327136 275.502928,6.73961517 C277.695,10.2773077 277.695,16.2259664 277.695,20.5026897 L277.695,48.3317381 C277.600721,49.1071146 276.905381,49.725 276.080416,49.725 L267.677458,49.725 C266.911405,49.6644305 266.274995,49.0828919 266.192507,48.3317381 L266.192507,24.319043 C266.192507,19.4850044 266.73463,12.4096134 260.94802,12.4096134 C258.90916,12.4096134 257.035286,13.8150056 256.104244,15.9473065 C254.925713,18.6490442 254.772501,21.3386596 254.772501,24.319043 L254.772501,48.1257763 C254.760724,49.0101957 254.030027,49.725 253.134344,49.725" id="path18"></path>
                        <path d="M138.216333,27.7813835 C138.216333,31.1714438 138.299852,33.9985352 136.629452,37.0092067 C135.281203,39.4569132 133.133548,40.9622448 130.759198,40.9622448 C127.501918,40.9622448 125.592889,38.4166316 125.592889,34.6594151 C125.592889,27.2428906 132.071649,25.8966579 138.216333,25.8966579 L138.216333,27.7813835 M146.771167,48.9906908 C146.210396,49.5047067 145.39905,49.5414199 144.766689,49.1987483 C141.950867,46.8000048 141.437819,45.6863052 139.898667,43.397707 C135.245408,48.2686232 131.940399,49.725 125.915031,49.725 C118.768107,49.725 113.22,45.2089942 113.22,36.1647579 C113.22,29.1031417 116.94261,24.2934136 122.264024,21.9436243 C126.869551,19.8630732 133.30058,19.495925 138.216333,18.9207167 L138.216333,17.7947753 C138.216333,15.7264634 138.371444,13.2787641 137.1783,11.4919532 C136.152199,9.88870416 134.171575,9.22782536 132.41766,9.22782536 C129.18424,9.22782536 126.308774,10.9289754 125.604815,14.453661 C125.461639,15.23693 124.900867,16.0079549 124.125316,16.04467 L115.904569,15.1390152 C115.212542,14.9799234 114.437004,14.4047058 114.639839,13.3154886 C116.525004,3.08410885 125.545165,0 133.610801,0 C137.739077,0 143.132079,1.1259439 146.389359,4.33242683 C150.517627,8.28545987 150.123895,13.5602508 150.123895,19.3001091 L150.123895,32.8603582 C150.123895,36.9357831 151.770431,38.7225928 153.321515,40.9255316 C153.858437,41.708787 153.97775,42.6511508 153.285687,43.2385987 C151.555632,44.7194641 148.477321,47.4731234 146.783061,49.015171 L146.771137,48.9906543" id="path28"></path>
                        <path d="M24.9898062,27.7813835 C24.9898062,31.1714438 25.073296,33.9985352 23.403341,37.0092067 C22.0554347,39.4569132 19.9202697,40.9622448 17.5346076,40.9622448 C14.2781789,40.9622448 12.3815816,38.4166316 12.3815816,34.6594151 C12.3815816,27.2428906 18.85865,25.8966579 24.9898062,25.8966579 L24.9898062,27.7813835 M33.5423989,48.9906908 C32.9817712,49.5047067 32.1706371,49.5414199 31.5384384,49.1987483 C28.7233658,46.8000048 28.2223695,45.6863052 26.6716908,43.397707 C22.0196498,48.2686232 18.7274455,49.725 12.6917139,49.725 C5.55858271,49.725 0,45.2089942 0,36.1647579 C0,29.1031417 3.73355933,24.2934136 9.041654,21.9436243 C13.6459797,19.8630732 20.075338,19.495925 24.9898062,18.9207167 L24.9898062,17.7947753 C24.9898062,15.7264634 25.1448748,13.2787641 23.9639712,11.4919532 C22.9262014,9.88870416 20.9461094,9.22782536 19.2045714,9.22782536 C15.972007,9.22782536 13.0853503,10.9289754 12.3815816,14.453661 C12.2384387,15.23693 11.6778087,16.0079549 10.9144009,16.04467 L2.68386932,15.1390152 C1.99202604,14.9799234 1.22861346,14.4047058 1.41946661,13.3154886 C3.31606845,3.08410885 12.3219375,0 20.3854797,0 C24.5126666,0 29.9042609,1.1259439 33.1606902,4.33242683 C37.2878878,8.28545987 36.8942479,13.5602508 36.8942479,19.3001091 L36.8942479,32.8603582 C36.8942479,36.9357831 38.5403621,38.7225928 40.091043,40.9255316 C40.6397422,41.708787 40.7590243,42.6511508 40.067175,43.2385987 C38.3375724,44.7194641 35.2600731,47.4731234 33.5662449,49.015171 L33.5424044,48.9906543" id="path30"></path>
                    </g>
                    <g id="NewYorkTimes" transform="translate(0.000000, 43.605000)" fill="#000000" fill-rule="nonzero">
                        <path d="M47.3660076,8.69318182 C47.3660076,1.73863636 40.8446008,0 35.6961217,0 L35.6961217,1.04318182 C38.7852091,1.04318182 41.1878327,2.08636364 41.1878327,4.52045455 C41.1878327,5.91136364 40.1581369,7.99772727 37.0690494,7.99772727 C34.6664259,7.99772727 29.5179468,6.60681818 25.7423954,5.21590909 C21.2803802,3.47727273 17.161597,2.08636364 13.7292776,2.08636364 C6.86463878,2.08636364 2.05939163,7.30227273 2.05939163,13.2136364 C2.05939163,18.4295455 5.83494297,20.1681818 7.20787072,20.8636364 L7.55110266,20.1681818 C6.86463878,19.4727273 5.83494297,18.7772727 5.83494297,16.6909091 C5.83494297,15.3 7.20787072,12.8659091 10.6401901,12.8659091 C13.7292776,12.8659091 17.8480608,14.2568182 23.3397719,15.9954545 C28.145019,17.3863636 33.2934981,18.4295455 36.0393536,18.7772727 L36.0393536,29.5568182 L30.8908745,34.0772727 L30.8908745,34.425 L36.0393536,38.9454545 L36.0393536,53.8977273 C33.2934981,55.6363636 30.2044106,55.9840909 27.4585551,55.9840909 C22.310076,55.9840909 17.8480608,54.5931818 14.0725095,50.4204545 L28.145019,43.4659091 L28.145019,19.4727273 L10.9834221,27.1227273 C12.3563498,22.6022727 16.1319011,19.4727273 19.9074525,17.3863636 L19.5642205,16.3431818 C9.26726236,19.125 0,28.8613636 0,40.6840909 C0,54.5931818 11.326654,65.025 24.0262357,65.025 C37.7555133,65.025 46.6795437,53.8977273 46.6795437,42.4227273 L45.9930798,42.4227273 C43.9336882,46.9431818 40.8446008,51.1159091 37.0690494,53.2022727 L37.0690494,38.9454545 L42.5607605,34.425 L42.5607605,34.0772727 L37.0690494,29.5568182 L37.0690494,18.7772727 C42.2175285,18.7772727 47.3660076,15.3 47.3660076,8.69318182 Z M17.5048289,46.9431818 L13.3860456,49.0295455 C10.9834221,45.9 9.6104943,41.7272727 9.6104943,35.8159091 C9.6104943,33.3818182 9.6104943,30.6 10.2969582,28.5136364 L17.5048289,25.3840909 L17.5048289,46.9431818 L17.5048289,46.9431818 Z M53.8874144,54.9409091 L49.4253992,58.4181818 L50.1118631,59.1136364 L52.1712548,57.375 L59.7223574,64.3295455 L70.0193156,57.375 L69.6760837,56.6795455 L66.9302281,58.4181818 L63.4979087,54.9409091 L63.4979087,31.2954545 L66.2437643,29.2090909 L72.0787072,34.0772727 L72.0787072,55.2886364 C72.0787072,68.5022727 69.3328517,70.5886364 63.4979087,72.675 L63.4979087,73.7181818 C73.108403,74.0659091 82.0324335,70.9363636 82.0324335,53.8977273 L82.0324335,30.9477273 L85.1215209,28.5136364 L84.435057,27.8181818 L81.6892015,29.9045455 L73.108403,22.6022727 L63.4979087,29.9045455 L63.4979087,1.39090909 L62.8114449,1.39090909 L50.798327,9.73636364 L50.798327,10.4318182 C52.1712548,11.1272727 54.2306464,11.8227273 54.2306464,15.6477273 L53.8874144,54.9409091 L53.8874144,54.9409091 Z M116.698859,51.1159091 L108.118061,57.7227273 L99.5372624,50.7681818 L99.5372624,46.5954545 L115.669163,35.4681818 L115.669163,35.1204545 L107.431597,22.6022727 L89.5835361,32.3386364 L89.5835361,55.2886364 L86.1512167,58.0704545 L86.8376806,58.7659091 L89.9267681,56.3318182 L101.596654,65.025 L117.042091,52.5068182 L116.698859,51.1159091 L116.698859,51.1159091 Z M99.5372624,45.2045455 L99.5372624,28.1659091 L100.223726,27.8181818 L107.774829,39.9886364 L99.5372624,45.2045455 Z M182.25616,5.56363636 C182.25616,4.52045455 181.912928,3.47727273 181.569696,2.43409091 L180.883232,2.43409091 C179.853536,5.21590909 178.480608,6.60681818 175.048289,6.60681818 C171.959202,6.60681818 169.89981,4.86818182 168.526882,3.47727273 L158.573156,14.9522727 L159.25962,15.6477273 L162.691939,12.5181818 C164.751331,14.2568182 166.46749,15.6477273 171.272738,15.9954545 L171.272738,44.8568182 L151.022053,9.73636364 C149.305894,6.95454545 146.90327,3.12954545 142.098023,3.12954545 C136.606312,3.12954545 131.801065,7.99772727 132.487529,15.6477273 L133.517224,15.6477273 C133.860456,13.5613636 134.890152,11.1272727 137.292776,11.1272727 C139.008935,11.1272727 140.725095,12.8659091 141.754791,14.6045455 L141.754791,26.0795455 C135.576616,26.0795455 131.457833,28.8613636 131.457833,34.0772727 C131.457833,36.8590909 132.83076,41.0318182 136.949544,42.075 L136.949544,41.3795455 C136.26308,40.6840909 135.919848,39.9886364 135.919848,38.9454545 C135.919848,37.2068182 137.292776,35.8159091 139.695399,35.8159091 L141.411559,35.8159091 L141.411559,50.4204545 C134.203688,50.4204545 128.368745,54.5931818 128.368745,61.5477273 C128.368745,68.1545455 133.860456,71.2840909 140.038631,70.9363636 L140.038631,70.2409091 C136.26308,69.8931818 134.54692,68.1545455 134.54692,65.7204545 C134.54692,62.5909091 136.606312,61.2 139.352167,61.2 C142.098023,61.2 144.500646,62.9386364 146.216806,65.025 L156.170532,53.8977273 L155.484068,53.2022727 L153.081445,55.9840909 C149.305894,52.5068182 147.246502,51.4636364 142.784487,50.7681818 L142.784487,15.9954545 L170.243042,64.6772727 L172.302433,64.6772727 L172.302433,15.9954545 C177.450913,15.6477273 182.25616,11.475 182.25616,5.56363636 L182.25616,5.56363636 Z M207.312091,51.1159091 L198.731293,57.7227273 L190.150494,50.7681818 L190.150494,46.5954545 L206.282395,35.4681818 L206.282395,35.1204545 L198.044829,22.6022727 L180.196768,32.3386364 L180.196768,55.2886364 L176.764449,58.0704545 L177.450913,58.7659091 L180.54,56.3318182 L192.209886,65.025 L207.655323,52.5068182 L207.312091,51.1159091 L207.312091,51.1159091 Z M190.150494,45.2045455 L190.150494,28.1659091 L190.836958,27.8181818 L198.388061,39.9886364 L190.150494,45.2045455 L190.150494,45.2045455 Z M263.258897,26.4272727 L260.856274,28.1659091 L254.334867,22.6022727 L246.783764,29.5568182 L249.872852,32.6863636 L249.872852,58.7659091 L241.635285,53.55 L241.635285,31.9909091 L244.381141,30.2522727 L236.486806,22.6022727 L228.935703,29.5568182 L232.024791,32.6863636 L232.024791,57.7227273 L230.995095,58.4181818 L223.787224,53.2022727 L223.787224,32.3386364 C223.787224,27.4704545 221.384601,26.0795455 218.638745,24.3409091 C216.236122,22.6022727 214.863194,21.5590909 214.863194,19.125 C214.863194,17.0386364 216.922586,15.9954545 217.952281,15.3 L217.952281,14.6045455 C215.206426,14.6045455 207.998555,17.3863636 207.998555,23.9931818 C207.998555,27.4704545 209.714715,28.8613636 211.430875,30.6 C213.147034,32.3386364 214.863194,33.7295455 214.863194,36.8590909 L214.863194,57.0272727 L211.087643,59.8090909 L211.774106,60.5045455 L215.206426,57.7227273 L223.10076,64.6772727 L231.681559,58.7659091 L241.292053,64.6772727 L259.483346,53.8977273 L259.483346,30.6 L263.945361,27.1227273 L263.258897,26.4272727 L263.258897,26.4272727 Z M327.100038,7.30227273 L323.667719,10.4318182 L316.116616,3.47727273 L304.789962,11.8227273 L304.789962,4.17272727 L303.760266,4.17272727 L304.103498,60.5045455 C303.073802,60.5045455 299.984715,59.8090909 297.582091,59.1136364 L296.895627,12.1704545 C296.895627,8.69318182 294.493004,3.825 288.314829,3.825 C282.136654,3.825 278.017871,8.69318182 278.017871,13.5613636 L279.047567,13.5613636 C279.390798,11.475 280.420494,9.73636364 282.479886,9.73636364 C284.539278,9.73636364 286.255437,11.1272727 286.255437,15.6477273 L286.255437,29.2090909 C280.077262,29.5568182 276.301711,33.0340909 276.301711,37.5545455 C276.301711,40.3363636 277.674639,44.5090909 281.793422,44.5090909 L281.793422,43.8136364 C280.420494,43.1181818 280.077262,42.075 280.077262,41.3795455 C280.077262,39.2931818 281.793422,38.5977273 284.539278,38.5977273 L285.912205,38.5977273 L285.912205,60.1568182 C280.763726,61.8954545 278.704335,65.7204545 278.704335,69.8931818 C278.704335,75.8045455 283.16635,79.9772727 290.030989,79.9772727 C294.836236,79.9772727 298.955019,79.2818182 303.073802,78.2386364 C306.506122,77.5431818 310.968137,76.5 313.027529,76.5 C315.773384,76.5 316.80308,77.8909091 316.80308,79.6295455 C316.80308,82.0636364 315.773384,83.1068182 314.400456,83.4545455 L314.400456,84.15 C319.892167,83.1068182 323.324487,79.6295455 323.324487,74.4136364 C323.324487,69.1977273 318.176008,66.0681818 312.684297,66.0681818 C309.938441,66.0681818 304.103498,67.1113636 299.984715,67.8068182 C295.179468,68.85 290.374221,69.5454545 289.001293,69.5454545 C286.598669,69.5454545 283.852814,68.5022727 283.852814,65.025 C283.852814,62.2431818 286.255437,59.8090909 292.09038,59.8090909 C295.179468,59.8090909 298.955019,60.1568182 302.73057,61.2 C306.849354,62.2431818 310.624905,63.2863636 314.057224,63.2863636 C319.205703,63.2863636 323.667719,61.5477273 323.667719,54.2454545 L323.667719,11.475 L327.786502,7.99772727 L327.100038,7.30227273 L327.100038,7.30227273 Z M313.027529,28.5136364 C311.997833,29.5568182 310.624905,30.6 308.908745,30.6 C307.192586,30.6 305.476426,29.5568182 304.789962,28.5136364 L304.789962,13.2136364 L308.222281,10.7795455 L313.027529,15.3 L313.027529,28.5136364 Z M313.027529,38.9454545 C312.341065,38.25 310.624905,37.2068182 308.908745,37.2068182 C307.192586,37.2068182 305.476426,38.25 304.789962,38.9454545 L304.789962,29.9045455 C305.476426,30.6 307.192586,31.6431818 308.908745,31.6431818 C310.624905,31.6431818 312.341065,30.6 313.027529,29.9045455 L313.027529,38.9454545 Z M313.027529,55.2886364 C313.027529,58.0704545 311.311369,60.8522727 307.535817,60.8522727 L304.789962,60.8522727 L304.789962,40.3363636 C305.476426,39.6409091 307.192586,38.5977273 308.908745,38.5977273 C310.624905,38.5977273 311.997833,39.6409091 313.027529,40.3363636 L313.027529,55.2886364 L313.027529,55.2886364 Z M360.050304,30.6 L349.066882,22.6022727 L332.248517,32.3386364 L332.248517,54.9409091 L328.816198,57.7227273 L329.15943,58.4181818 L331.905285,56.3318182 L342.888707,64.6772727 L360.050304,54.2454545 L360.050304,30.6 L360.050304,30.6 Z M341.515779,52.5068182 L341.515779,27.4704545 L350.096578,33.7295455 L350.096578,58.4181818 L341.515779,52.5068182 L341.515779,52.5068182 Z M392.657338,23.2977273 L391.970875,23.2977273 C390.941179,23.9931818 389.911483,24.6886364 388.881787,24.6886364 C387.508859,24.6886364 385.7927,23.9931818 385.106236,22.95 L384.419772,22.95 L378.584829,29.5568182 L372.749886,22.95 L362.452928,29.9045455 L362.79616,30.6 L365.542015,28.8613636 L368.974335,32.6863636 L368.974335,54.5931818 L364.512319,58.0704545 L365.198783,58.7659091 L367.258175,57.0272727 L375.495741,63.9818182 L386.135932,56.6795455 L385.7927,55.9840909 L382.703612,57.7227273 L378.584829,54.2454545 L378.584829,29.9045455 C380.300989,31.6431818 382.36038,33.3818182 384.763004,33.3818182 C389.568251,33.7295455 392.314106,28.8613636 392.657338,23.2977273 L392.657338,23.2977273 Z M433.845171,56.6795455 L422.175285,64.6772727 L406.386616,40.3363636 L417.71327,22.6022727 L418.399734,22.6022727 C419.772662,23.9931818 421.832053,25.3840909 424.234677,25.3840909 C426.6373,25.3840909 428.35346,23.9931818 429.383156,22.6022727 L430.06962,22.6022727 C429.726388,29.5568182 424.921141,33.7295455 421.488821,33.7295455 C418.056502,33.7295455 416.340342,31.9909091 414.280951,30.9477273 L413.251255,32.6863636 L430.412852,58.4181818 L433.845171,56.3318182 L433.845171,56.6795455 L433.845171,56.6795455 Z M396.089658,54.9409091 L391.627643,58.4181818 L392.314106,59.1136364 L394.373498,57.375 L401.924601,64.3295455 L412.221559,57.375 L411.535095,56.6795455 L408.78924,58.4181818 L405.35692,54.9409091 L405.35692,1.39090909 L405.013688,1.39090909 L392.657338,9.73636364 L392.657338,10.4318182 C394.030266,11.1272727 396.089658,11.475 396.089658,15.6477273 L396.089658,54.9409091 L396.089658,54.9409091 Z M490.821673,8.69318182 C490.821673,1.73863636 484.300266,0 479.151787,0 L479.151787,1.04318182 C482.240875,1.04318182 484.643498,2.08636364 484.643498,4.52045455 C484.643498,5.91136364 483.613802,7.99772727 480.524715,7.99772727 C478.122091,7.99772727 472.973612,6.60681818 469.198061,5.21590909 C464.736046,3.825 460.617262,2.43409091 457.184943,2.43409091 C450.320304,2.43409091 445.515057,7.65 445.515057,13.5613636 C445.515057,18.7772727 449.290608,20.5159091 450.663536,21.2113636 L451.006768,20.5159091 C449.977072,19.8204545 448.947376,19.125 448.947376,17.0386364 C448.947376,15.6477273 450.320304,13.2136364 453.752624,13.2136364 C456.841711,13.2136364 460.960494,14.6045455 466.452205,16.3431818 C471.257452,17.7340909 476.405932,18.7772727 479.151787,19.125 L479.151787,29.9045455 L474.003308,34.425 L474.003308,34.7727273 L479.151787,39.2931818 L479.151787,54.2454545 C476.405932,55.9840909 473.316844,56.3318182 470.570989,56.3318182 C465.42251,56.3318182 460.960494,54.9409091 457.184943,50.7681818 L471.257452,43.8136364 L471.257452,19.4727273 L454.095856,27.1227273 C455.812015,22.6022727 459.587567,19.4727273 463.019886,17.0386364 L462.676654,16.3431818 C452.379696,19.125 443.112433,28.5136364 443.112433,40.3363636 C443.112433,54.2454545 454.439087,64.6772727 467.138669,64.6772727 C480.867947,64.6772727 489.791977,53.55 489.791977,42.075 L489.105513,42.075 C487.046122,46.5954545 483.957034,50.7681818 480.181483,52.8545455 L480.181483,38.5977273 L485.673194,34.0772727 L485.673194,33.7295455 L480.524715,29.2090909 L480.524715,18.7772727 C485.673194,18.7772727 490.821673,15.3 490.821673,8.69318182 Z M460.960494,46.9431818 L456.841711,49.0295455 C454.439087,45.9 453.06616,41.7272727 453.06616,35.8159091 C453.06616,33.3818182 453.409392,30.6 454.095856,28.5136364 L461.303726,25.3840909 L460.960494,46.9431818 L460.960494,46.9431818 Z M502.834791,5.21590909 L502.491559,5.21590909 L495.62692,11.1272727 L495.62692,11.475 L501.461863,18.0818182 L502.148327,18.0818182 L509.012966,12.1704545 L509.012966,11.8227273 L502.834791,5.21590909 L502.834791,5.21590909 Z M513.131749,56.6795455 L510.385894,58.4181818 L506.953574,54.9409091 L506.953574,30.9477273 L510.385894,28.5136364 L509.69943,27.8181818 L507.296806,29.9045455 L501.118631,22.6022727 L491.164905,29.5568182 L491.851369,30.6 L494.253992,28.8613636 L497.34308,32.6863636 L497.34308,55.2886364 L492.881065,58.7659091 L493.224297,59.4613636 L495.62692,57.7227273 L503.178023,64.6772727 L513.474981,57.7227273 L513.131749,56.6795455 L513.131749,56.6795455 Z M570.451483,56.3318182 L568.048859,58.0704545 L564.273308,54.5931818 L564.273308,30.9477273 L567.705627,28.1659091 L567.019163,27.4704545 L564.273308,29.9045455 L556.378973,22.6022727 L546.082015,29.9045455 L538.187681,22.6022727 L528.577186,29.9045455 L522.399011,22.6022727 L512.445285,29.5568182 L512.788517,30.6 L515.191141,28.8613636 L518.62346,32.6863636 L518.62346,55.2886364 L515.877605,58.0704545 L523.771939,64.6772727 L531.323042,57.7227273 L528.233954,54.5931818 L528.233954,30.9477273 L531.323042,28.8613636 L536.471521,33.7295455 L536.471521,54.5931818 L533.725665,57.375 L541.62,63.9818182 L549.171103,57.0272727 L546.082015,53.8977273 L546.082015,30.9477273 L548.827871,29.2090909 L554.319582,34.0772727 L554.319582,54.9409091 L551.916958,57.375 L559.811293,64.6772727 L570.451483,57.375 L570.451483,56.3318182 L570.451483,56.3318182 Z M600.312662,51.1159091 L591.731863,57.7227273 L583.151065,50.7681818 L583.151065,46.5954545 L599.282966,35.4681818 L599.282966,35.1204545 L591.045399,22.6022727 L573.197338,32.3386364 L573.197338,55.9840909 L585.210456,64.6772727 L600.655894,52.1590909 L600.312662,51.1159091 L600.312662,51.1159091 Z M583.151065,45.2045455 L583.151065,28.1659091 L583.837529,27.8181818 L591.388631,39.9886364 L583.151065,45.2045455 L583.151065,45.2045455 Z M631.546768,42.075 L625.025361,36.8590909 C629.487376,33.0340909 631.203536,27.8181818 631.203536,24.3409091 L631.203536,22.2545455 L630.517072,22.2545455 C629.830608,23.9931818 628.457681,25.7318182 625.711825,25.7318182 C622.96597,25.7318182 621.24981,24.3409091 619.53365,22.2545455 L604.088213,30.9477273 L604.088213,43.4659091 L609.923156,47.9863636 C604.088213,53.2022727 603.058517,56.6795455 603.058517,59.4613636 C603.058517,62.9386364 604.774677,65.3727273 607.520532,66.4159091 L607.863764,65.7204545 C607.1773,65.025 606.490837,64.6772727 606.490837,62.9386364 C606.490837,61.8954545 607.863764,60.1568182 610.60962,60.1568182 C614.041939,60.1568182 616.101331,62.5909091 617.131027,63.6340909 L631.89,54.5931818 L631.89,42.075 L631.546768,42.075 L631.546768,42.075 Z M627.771217,31.6431818 C625.368593,35.8159091 620.220114,39.9886364 617.131027,42.075 L613.355475,38.9454545 L613.355475,26.775 C614.728403,30.2522727 618.503954,33.0340909 622.279506,33.0340909 C624.682129,33.0340909 626.055057,32.6863636 627.771217,31.6431818 L627.771217,31.6431818 Z M621.936274,59.4613636 C620.220114,55.6363636 616.101331,52.8545455 611.982548,52.8545455 C610.952852,52.8545455 608.206996,52.8545455 605.461141,54.5931818 C607.1773,51.8113636 611.639316,46.9431818 617.474259,43.4659091 L621.593042,46.9431818 L621.936274,59.4613636 L621.936274,59.4613636 Z" id="Shape"></path>
                    </g>
                </g>
                <g id="Facebook_Logo_(2019)" transform="translate(1704.000000, 36.000000)" fill="#000000" fill-rule="nonzero">
                    <path d="M22.6666667,67 L9.18390805,67 L9.18390805,33.9735835 L0,33.9735835 L0,23.2207967 L9.18390805,23.2207967 L9.18390805,15.5694976 C9.18390805,6.50255579 13.2458099,0 26.691446,0 C29.5353545,0 34,0.563138805 34,0.563138805 L34,10.5478694 L29.3103448,10.5478694 C24.5323952,10.5478694 22.6666667,11.9759163 22.6666667,15.9242628 L22.6666667,23.2207967 L33.8207145,23.2207967 L32.8275862,33.9735835 L22.6666667,33.9735835 L22.6666667,67 Z" id="path3025"></path>
                    <path d="M52.8344444,22 C52.6382357,22 52.4356167,22.007065 52.2355556,22.0121114 C39.7240636,22.0121114 34,31.3527122 34,44.6118143 C34,61.3149772 41.4251467,68 52.3333333,68 C58.5741564,68 62.6744245,65.3929451 65.1666667,60.5274262 L65.1666667,67.1265823 L78,67.1265823 L78,22.8734177 L65.1666667,22.8734177 L65.1666667,29.6787781 C63.1319737,25.300238 58.9168871,22.0516287 52.8344444,22 L52.8344444,22 Z M56.0977778,32.4568287 C61.3527662,32.4568287 64.5066667,36.0949823 64.5066667,42.2827781 L64.5188693,48.6029063 C64.5188693,52.7733789 61.9138229,57.6524844 56.0977582,57.6524844 C47.1563559,57.6524844 47.395536,48.0702768 47.395536,44.8787696 C47.395536,34.1433013 52.1591442,32.4568287 56.0977582,32.4568287 L56.0977778,32.4568287 Z" id="path3027"></path>
                    <path d="M83,44.9838247 C83,39.6037938 82.7405511,22 105.850151,22 C115.126574,22 119,24.9275188 119,24.9275188 L115.886588,34.510802 C115.886588,34.510802 112.018164,32.3968259 106.977496,32.3968259 C100.521045,32.3968259 96.4015812,36.1111292 96.4015812,42.6466564 L96.408977,47.3329545 C96.408977,53.6130942 100.383428,57.8049287 106.990777,57.8049287 C111.582745,57.8049287 115.815479,55.6708742 115.815479,55.6708742 L118.920998,65.0543835 C118.920998,65.0543835 115.37916,68 105.914659,68 C83.910983,68 83,52.2058611 83,44.9838247 L83,44.9838247 Z" id="path3029"></path>
                    <path d="M192.819689,22.2962981 C205.231883,22.2962981 211,31.5791471 211,44.7563244 C211,61.3562824 203.633783,68 192.812169,68 C186.620877,68 182.043891,65.4090921 179.571429,60.5735974 L179.571429,67.1319789 L167,67.1269637 L167,1.15736144 L180.347443,0 L180.347443,29.3198232 C182.273894,24.1902816 188.604881,22.296221 192.819689,22.296221 L192.819689,22.2962981 Z M189.077601,32.6764029 C183.864319,32.6764029 180.347443,36.2920772 180.347443,42.44164 L180.335317,48.7227178 C180.327344,52.867422 182.77083,57.7163806 189.077621,57.7163806 C197.94806,57.7163806 197.710778,48.1933792 197.710778,45.0215916 C197.710778,34.3524551 192.984976,32.6764029 189.077621,32.6764029 L189.077601,32.6764029 Z" id="path3031"></path>
                    <path d="M142.242407,23 C128.339609,23 121,30.6569965 121,44.264274 L121,46.7922599 C121,64.4529386 131.307312,69 143.595502,69 C155.53986,69 160.946262,65.6253138 160.946262,65.6253138 L158.479556,56.6381752 C158.479556,56.6381752 152.120084,59.3718077 145.17611,59.3718077 C137.977472,59.3718077 134.881297,57.5181242 134.087909,50.5298564 L162,50.5298564 L162,43.3208079 C162,28.5606633 153.762529,23 142.242407,23 Z M142.577687,31.9992149 C147.390045,31.9992149 150.508294,34.9801033 150.337033,41.8935131 L134.111857,41.8935131 C134.393424,34.6170382 137.756229,31.9992149 142.577687,31.9992149 Z" id="path3033"></path>
                    <path d="M238.084942,22 C223.616767,22 216,30.1463211 216,44.7453875 C216,64.7756061 229.129588,68 238.109211,68 C251.25425,68 260,60.9287355 260,44.927273 C260,28.2722564 250.166126,22 238.084942,22 Z M237.902923,32.4997364 C244.264792,32.4997364 246.785438,37.2569657 246.785438,42.6721333 L246.785438,47.3279055 C246.785438,53.8882766 243.258018,57.6821491 237.878654,57.6821491 C232.847555,57.6821491 229.311638,54.1330539 229.311638,47.3279055 L229.311638,42.6721333 C229.311638,35.4144827 233.519143,32.4997364 237.902923,32.4997364 Z" id="path3035"></path>
                    <path d="M285.084942,22 C270.616767,22 263,30.1463211 263,44.7453875 C263,64.7756061 276.129588,68 285.109211,68 C298.25425,68 307,60.9287355 307,44.927273 C307,28.2722564 297.166126,22 285.084942,22 Z M284.902923,32.4997364 C291.264792,32.4997364 293.785438,37.2569657 293.785438,42.6721333 L293.785438,47.3279055 C293.785438,53.8882766 290.258018,57.6821491 284.878654,57.6821491 C279.847555,57.6821491 276.311638,54.1330539 276.311638,47.3279055 L276.311638,42.6721333 C276.311638,35.4144827 280.519143,32.4997364 284.902923,32.4997364 Z" id="path3037"></path>
                    <polygon id="path3039" points="313 67 313 1.15517241 326.276939 0 326.276939 44.1333236 339.449283 23.1034483 353.470831 23.1034483 339.72953 44.8842626 354 67 339.938717 67 326.276939 45.5258069 326.276939 67"></polygon>
                </g>
                <g id="Pinterest_Logo" transform="translate(2121.000000, 26.000000)">
                    <g id="g10" transform="translate(196.500000, 48.800000) scale(-1, 1) rotate(-180.000000) translate(-196.500000, -48.800000) translate(0.000000, 0.300000)">
                        <polygon id="path12" fill="#000000" fill-rule="nonzero" points="154.550069 61.4900883 166.941809 61.4900883 166.941809 22.4574369 154.550069 22.4574369"></polygon>
                        <g id="g14">
                            <g id="g16-Clipped">
                                <mask id="mask-2" fill="white">
                                    <use xlink:href="#path-1"></use>
                                </mask>
                                <g id="path20"></g>
                                <g id="g16" mask="url(#mask-2)">
                                    <g transform="translate(0.383503, 1.076837)">
                                        <g id="g22" transform="translate(169.145761, 21.185654)">
                                            <path d="M-1.77635684e-14,39.2276358 L11.9353722,39.2276358 L11.9353722,33.891139 L12.1631728,33.891139 C15.0520989,38.0842656 18.777061,40.371006 24.174862,40.371006 C32.6890063,40.371006 37.7063726,34.2722624 37.7063726,25.5814181 L37.7063726,0.194984425 L25.3150156,0.194984425 L25.3150156,23.0654653 C25.3150156,27.1824441 23.262509,30.0033726 19.2334292,30.0033726 C15.1284159,30.0033726 12.3913569,26.5724928 12.3913569,21.7697995 L12.3913569,0.194984425 L-1.77635684e-14,0.194984425 L-1.77635684e-14,39.2276358 Z" id="path24" fill="#000000" fill-rule="nonzero"></path>
                                        </g>
                                        <g id="g26" transform="translate(152.838649, 63.164378)">
                                            <path d="M14.9566067,7.69169329 C14.9566067,11.8086721 11.62857,15.1457133 7.52355668,15.1457133 C3.41854339,15.1457133 0.0905066458,11.8086721 0.0905066458,7.69169329 C0.0905066458,3.57509904 3.41854339,0.238057907 7.52355668,0.238057907 C11.62857,0.238057907 14.9566067,3.57509904 14.9566067,7.69169329" id="path28" fill="#000000" fill-rule="nonzero"></path>
                                        </g>
                                        <g id="g30" transform="translate(269.842573, 21.364832)">
                                            <path d="M24.1606724,39.6122204 C23.8070829,39.644141 23.4017205,39.6583706 22.9273276,39.6583706 C18.214079,39.6583706 15.0214187,37.6000735 12.2843597,32.9496757 L12.056559,32.9496757 L12.056559,39.0484193 L0.197120407,39.0484193 L0.197120407,0.0161525559 L12.5884773,0.0161525559 L12.5884773,17.5501366 C12.5884773,25.6744876 17.0750758,29.4391869 24.1606724,28.7823163 L24.1606724,39.6122204 Z" id="path32" fill="#000000" fill-rule="nonzero"></path>
                                        </g>
                                        <g id="g34" transform="translate(332.953087, 19.853337)">
                                            <path d="M21.859656,26.1517572 C16.9182232,27.0662995 12.5090923,27.4474229 12.5090923,30.1918191 C12.5090923,32.6316242 14.8661001,33.7749944 17.9065098,33.7749944 C21.3273542,33.7749944 23.684362,32.707772 24.1403468,29.2007444 L35.5438006,29.2007444 C34.9355653,36.900514 29.005846,41.7035919 17.9832103,41.7035919 C8.78413018,41.7035919 1.18195543,37.4343175 1.18195543,29.2007444 C1.18195543,20.0530136 8.40407897,18.2231597 15.1702177,17.079405 C20.3394511,16.164478 25.0526998,15.7833546 25.0526998,12.2767117 C25.0526998,9.76075879 22.6960754,8.3885607 18.9711134,8.3885607 C15.2338792,8.3885607 12.7622041,9.97420327 12.0044027,13.191254 L0.196736904,13.191254 C1.0657541,5.16727955 8.08922322,0.307667732 19.0470469,0.307667732 C29.2340301,0.307667732 36.7598878,4.72923762 36.7598878,13.2674018 C36.7598878,23.2546809 28.7017283,25.0080024 21.859656,26.1517572" id="path36" fill="#000000" fill-rule="nonzero"></path>
                                        </g>
                                        <g id="g38" transform="translate(292.899908, 20.024016)">
                                            <path d="M20.325645,32.6896965 C24.3547248,32.6896965 27.2432674,29.7164724 27.6996357,25.0656901 L12.3434191,25.0656901 C13.179455,29.7164724 15.6123964,32.6896965 20.325645,32.6896965 M21.0098139,9.13311661 C15.9161306,9.13311661 13.027588,12.4109317 12.267102,17.6712808 L40.2432432,17.6712808 C40.3191767,25.5994936 38.0388694,32.3847208 33.4011708,36.6536106 C30.05626,39.7029824 25.647129,41.5328363 20.0970774,41.5328363 C8.23802228,41.5328363 0.103929242,32.6135487 0.103929242,20.9490958 C0.103929242,9.13311661 8.01022166,0.213059904 20.8575633,0.213059904 C25.7986126,0.213059904 29.7521423,1.50911022 33.0211196,3.79623522 C36.441964,6.15950799 38.7226548,9.51385543 39.5586908,13.0204984 L27.4714515,13.0204984 C26.4068479,10.5810779 24.2787912,9.13311661 21.0098139,9.13311661" id="path40" fill="#000000" fill-rule="nonzero"></path>
                                        </g>
                                        <g id="g42" transform="translate(368.910227, 20.585702)">
                                            <path d="M22.6266615,9.99920128 C22.0525579,9.97651078 21.2817174,9.94305192 20.5733878,9.94305192 C17.9122623,9.94305192 16.2401904,10.7056833 16.2401904,13.7550551 L16.2401904,32.0516705 L22.6266615,32.0516705 L22.6266615,39.8275879 L16.2401904,39.8275879 L16.2401904,52.1777552 L4.15256763,52.1777552 L4.15256763,39.8275879 L0.349370993,39.8275879 L0.349370993,32.0516705 L4.15256763,32.0516705 L4.15256763,11.0868067 C4.15256763,2.70055351 9.32218452,0.337665335 16.5443081,0.337665335 C19.2997752,0.337665335 21.3825786,0.544571885 22.6266615,0.788013978 L22.6266615,9.99920128 Z" id="path44" fill="#000000" fill-rule="nonzero"></path>
                                        </g>
                                        <g id="g46" transform="translate(206.738003, 20.568049)">
                                            <path d="M22.2431587,9.99920128 C21.7488237,9.97997204 21.1781716,9.96074281 20.6451028,9.96074281 C17.9847443,9.96074281 16.3119054,10.7233742 16.3119054,13.772746 L16.3119054,32.0693614 L22.2431587,32.0693614 L22.2431587,39.8452788 L16.3119054,39.8452788 L16.3119054,52.1954461 L4.22466615,52.1954461 L4.22466615,39.8452788 L0.194052385,39.8452788 L0.194052385,32.0693614 L4.22466615,32.0693614 L4.22466615,11.1044976 C4.22466615,2.71824441 9.39389953,0.35535623 16.6160231,0.35535623 C19.0597025,0.35535623 20.9729977,0.518420128 22.2431587,0.724942093 L22.2431587,9.99920128 Z" id="path48" fill="#000000" fill-rule="nonzero"></path>
                                        </g>
                                        <g id="g50" transform="translate(228.359849, 20.091818)">
                                            <path d="M27.612197,24.9980032 C27.1562123,29.648401 24.2669027,32.6220096 20.2378229,32.6220096 C15.5245743,32.6220096 13.0920164,29.648401 12.255597,24.9980032 L27.612197,24.9980032 Z M0.0164906177,20.8814089 C0.0164906177,32.5454772 8.15058366,41.4647648 20.0100223,41.4647648 C25.5593069,41.4647648 29.9688213,39.6352955 33.3137322,36.5859237 C37.9510473,32.3166494 40.2313546,25.5318067 40.155421,17.6032093 L12.1800469,17.6032093 C12.9397658,12.3432448 15.8286919,9.06504513 20.9223753,9.06504513 C24.1909691,9.06504513 26.3197928,10.513391 27.3836294,12.9528115 L39.4712522,12.9528115 C38.6348327,9.44616853 36.3545254,6.09182109 32.9332975,3.72816374 C29.6647037,1.44142332 25.7115575,0.145373003 20.7701247,0.145373003 C7.92239953,0.145373003 0.0164906177,9.06504513 0.0164906177,20.8814089" id="path52" fill="#000000" fill-rule="nonzero"></path>
                                        </g>
                                        <g id="g54" transform="translate(110.403727, 21.045396)">
                                            <path d="M22.2431587,29.2284345 C27.1086579,29.2284345 29.8453335,32.1255108 29.8453335,36.4713175 C29.8453335,40.816355 27.0323409,43.4846034 22.2431587,43.4846034 L12.7399609,43.4846034 L12.7399609,29.2284345 L22.2431587,29.2284345 Z M0.19481939,54.8436961 L21.7131579,54.8436961 C28.3266626,54.8436961 33.1921618,53.0142268 36.5370727,49.8121749 C40.0342342,46.5343598 42.0108073,41.8835775 42.0108073,36.3947851 C42.0108073,25.9506194 34.7886837,18.5554409 23.613414,18.5554409 L12.7399609,18.5554409 L12.7399609,0.335357827 L0.19481939,0.335357827 L0.19481939,54.8436961 Z" id="path56" fill="#000000" fill-rule="nonzero"></path>
                                        </g>
                                        <g id="g58" transform="translate(0.013192, 0.076878)">
                                            <path d="M93.5746677,46.9193291 C93.5746677,21.0083219 72.6285152,0.00307667732 46.7904019,0.00307667732 C20.9522885,0.00307667732 0.00613604378,21.0083219 0.00613604378,46.9193291 C0.00613604378,72.8307208 20.9522885,93.8355815 46.7904019,93.8355815 C72.6285152,93.8355815 93.5746677,72.8307208 93.5746677,46.9193291" id="path60" fill="#FFFFFF" fill-rule="nonzero"></path>
                                        </g>
                                        <g id="g62" transform="translate(0.016184, 0.073879)">
                                            <path d="M46.7873339,93.8386581 C20.9492205,93.8386581 0.00306802189,72.8334129 0.00306802189,46.9224058 C0.00306802189,27.0463011 12.3345985,10.0549661 29.7379527,3.21897364 C29.3291388,6.93098482 28.9594421,12.6397596 29.9001744,16.6921282 C30.7503999,20.3537588 35.386181,40.0125731 35.386181,40.0125731 C35.386181,40.0125731 33.9867795,42.8231178 33.9867795,46.9781705 C33.9867795,53.5018802 37.7573784,58.3722604 42.4522189,58.3722604 C46.4437154,58.3722604 48.3715837,55.3671158 48.3715837,51.7635575 C48.3715837,47.7381098 45.8159214,41.7197444 44.4970555,36.1424976 C43.3948686,31.4728706 46.8322037,27.6647133 51.4250324,27.6647133 C59.7401388,27.6647133 66.1319789,36.4570879 66.1319789,49.1487664 C66.1319789,60.3820998 58.0830235,68.2360879 46.5898299,68.2360879 C33.2780665,68.2360879 25.4645817,58.2234261 25.4645817,47.8757911 C25.4645817,43.8434209 27.0135493,39.5195355 28.946403,37.1689541 C29.3287553,36.7043758 29.3847467,36.2974852 29.2708464,35.8232923 C28.9157228,34.3414876 28.1264742,31.1548191 27.9715391,30.5025635 C27.7675156,29.6437859 27.2935063,29.4614928 26.4068479,29.8753059 C20.5638002,32.6027804 16.9105532,41.1697883 16.9105532,48.0507772 C16.9105532,62.8503642 27.6332897,76.4419708 47.8227912,76.4419708 C64.0522435,76.4419708 76.664498,64.8444357 76.664498,49.3452891 C76.664498,33.1761961 66.498224,20.1633894 52.3876243,20.1633894 C47.6467635,20.1633894 43.1900782,22.6331921 41.6645043,25.5506514 C41.6645043,25.5506514 39.3186181,16.5929054 38.7498835,14.3976961 C37.693717,10.322637 34.8423741,5.21458347 32.935215,2.09829393 C37.3125152,0.739171725 41.9644034,0.00615335463 46.7873339,0.00615335463 C72.6258307,0.00615335463 93.5719832,21.0113986 93.5719832,46.9224058 C93.5719832,72.8334129 72.6258307,93.8386581 46.7873339,93.8386581" id="path64" fill="#000000" fill-rule="nonzero"></path>
                                        </g>
                                    </g>
                                </g>
                            </g>
                        </g>
                    </g>
                </g>
                <path d="M2590.28711,37.3544109 C2583.01465,40.4071353 2575.0198,49.0314619 2572.49477,59.8568579 C2569.29701,73.5730608 2582.60438,79.3732102 2583.69585,77.4714097 C2584.98051,75.2367762 2581.31133,74.4810859 2580.55606,67.3644958 C2579.57992,58.172809 2583.84112,47.9021329 2589.20398,43.3956596 C2590.20084,42.5584031 2590.15342,43.7237237 2590.15342,45.8792205 C2590.15342,49.7337496 2589.94104,84.3361075 2589.94104,91.5576584 C2589.94104,101.32931 2589.53857,104.415012 2588.81573,107.464092 C2588.08334,110.554023 2586.90591,112.641855 2587.7981,113.446089 C2588.79492,114.345701 2593.05095,112.205861 2595.51484,108.757363 C2598.4694,104.621424 2599.50363,99.6543919 2599.68932,94.2602737 C2599.91359,87.7578366 2599.90403,77.439827 2599.91359,71.5545124 C2599.92256,66.156795 2600.00426,50.3510969 2599.81924,40.8492931 C2599.77389,38.5186968 2593.32848,36.073557 2590.28675,37.3515766 M2848.62103,82.9201494 C2848.38835,87.9485732 2847.27546,91.8789608 2845.89428,94.6512826 C2843.22037,100.018331 2837.67194,101.684868 2835.31616,93.9695357 C2834.03235,89.7638931 2833.97238,82.7400603 2834.89536,76.8712161 C2835.83491,70.8925149 2838.45837,66.3772383 2842.80251,66.7844429 C2847.0873,67.1869715 2849.0929,72.7091262 2848.62103,82.9199268 L2848.62103,82.9201494 Z M2776.57204,114.322648 C2776.51389,122.691362 2775.19904,130.02898 2772.37942,132.160132 C2768.38031,135.182008 2763.00521,132.915255 2764.11821,126.808521 C2765.10302,121.404633 2769.76044,115.885886 2776.58336,109.142857 C2776.58336,109.142857 2776.5976,110.68058 2776.57222,114.322648 L2776.57204,114.322648 Z M2774.6835,82.855534 C2774.4404,87.438495 2773.26022,92.0424894 2771.97265,94.6438558 C2769.31493,100.014455 2763.75876,101.693427 2761.45626,93.9616522 C2759.88195,88.6789746 2760.25899,81.8418318 2761.03792,77.5338155 C2762.04869,71.9443713 2764.49873,66.7589286 2768.89893,66.7589286 C2773.177,66.7589286 2775.28656,71.4839986 2774.6835,82.8558905 L2774.6835,82.855534 Z M2732.34015,82.8102186 C2732.07961,87.6634378 2731.13998,91.720471 2729.63209,94.6671925 C2726.90394,100.0002 2721.50664,101.691533 2719.12629,93.985072 C2717.41029,88.4281222 2717.99448,80.8510502 2718.70832,76.757926 C2719.76766,70.6839387 2722.42032,66.37761 2726.56146,66.7856615 C2730.81519,67.2044066 2732.88309,72.7129677 2732.34015,82.810575 L2732.34015,82.8102186 Z M2926.39221,88.6354098 C2925.33692,88.6354098 2924.85536,89.7253395 2924.45695,91.5599953 C2923.07505,97.9391351 2921.62256,99.3795295 2919.7495,99.3795295 C2917.65691,99.3795295 2915.77667,96.2208512 2915.29331,89.897739 C2914.91344,84.9257637 2914.97447,75.7721751 2915.46025,66.6667945 C2915.55951,64.7959861 2915.04448,62.9449626 2910.03672,61.1220879 C2907.88188,60.3380166 2904.74957,59.1835175 2903.19001,62.9557545 C2898.78349,73.613 2897.05937,82.073978 2896.65379,85.5111304 C2896.6327,85.6890157 2896.4151,85.7253482 2896.37682,85.3097279 C2896.11838,82.5568224 2895.54051,77.5542657 2895.46871,67.043879 C2895.4548,64.9932067 2895.02126,63.2476734 2892.76236,61.8186105 C2891.29668,60.8913226 2886.84587,59.2512812 2885.24323,61.2023971 C2883.85473,62.7981038 2882.24671,67.0923973 2880.57585,72.1827679 C2879.21792,76.3200403 2878.27212,79.1188111 2878.27212,79.1188111 C2878.27212,79.1188111 2878.29007,67.9556087 2878.30623,63.7212099 C2878.31341,62.1237495 2877.21983,61.5914425 2876.89022,61.4949456 C2875.40601,61.0633174 2872.48187,60.3422434 2871.24057,60.3422434 C2869.7091,60.3422434 2869.33403,61.2000139 2869.33403,62.4498425 C2869.33403,62.6134736 2869.09233,77.1472789 2869.09233,87.3099934 C2869.09233,87.7514241 2869.09233,88.2330544 2869.09681,88.744677 C2868.24974,93.4155603 2865.50268,99.7562093 2862.51514,99.7562093 C2859.524,99.7562093 2858.1128,97.1053765 2858.1128,84.9898401 C2858.1128,77.9219523 2858.32457,74.8486644 2858.42868,69.736755 C2858.48908,66.7923395 2858.60576,64.5312715 2858.59916,64.018165 C2858.57717,62.4446715 2855.8617,61.651607 2854.59823,61.3585189 C2853.32879,61.0629577 2852.22566,60.9484744 2851.36423,60.9976221 C2850.14505,61.0665549 2849.2824,61.8680281 2849.2824,62.9703684 C2849.2824,63.5614009 2849.28914,64.6853249 2849.28914,64.6853249 C2847.7188,62.2126921 2845.19312,60.4917102 2843.51266,59.9929946 C2838.98651,58.6460863 2834.26349,59.8395258 2830.70109,64.8346118 C2827.86966,68.8034417 2826.16296,73.2985531 2825.49113,79.756833 C2825.00001,84.4783075 2825.16031,89.2661922 2826.03314,93.3153312 C2824.97847,97.8843216 2823.02046,99.7562093 2820.87644,99.7562093 C2817.76387,99.7562093 2815.50734,94.6655239 2815.76937,85.8614152 C2815.94223,80.0706054 2817.09863,76.0067625 2818.36269,70.1275541 C2818.90169,67.6213318 2818.46379,66.3091803 2817.36542,65.0515726 C2816.35801,63.8982858 2814.21161,63.309052 2811.12592,64.0337682 C2808.92804,64.550472 2805.78559,65.1061163 2802.9105,65.5329331 C2802.9105,65.5329331 2803.08399,64.8393782 2803.22638,63.6165741 C2803.97414,57.2038483 2797.01977,57.7241494 2794.80094,59.7723917 C2793.47648,60.9952389 2792.57493,62.4374769 2792.23276,65.0306184 C2791.69017,69.1457225 2795.03964,71.0866779 2795.03964,71.0866779 C2793.94068,76.1272712 2791.24689,82.7119999 2788.46572,87.4726802 C2786.97617,90.0233289 2785.83655,91.9133827 2784.36548,93.9225514 C2784.3601,93.1744079 2784.35606,92.4263543 2784.35337,91.6817182 C2784.31971,81.0843628 2784.46044,72.7438981 2784.52264,69.7377443 C2784.58309,66.7933737 2784.70093,64.5922453 2784.69433,64.0791389 C2784.67773,62.9282353 2784.00697,62.4936394 2782.61193,61.9433461 C2781.37839,61.4566346 2779.91988,61.1197497 2778.40699,61.0022536 C2776.49745,60.8530116 2775.34706,61.8678482 2775.37695,63.0678996 C2775.38278,63.294483 2775.38278,64.6857745 2775.38278,64.6857745 C2773.81241,62.2130968 2771.28672,60.4921599 2769.60631,59.9933993 C2765.08011,58.6470755 2760.35714,59.84056 2756.79469,64.8350165 C2753.96389,68.8038464 2752.10999,74.3731494 2751.58472,79.7080899 C2751.0954,84.6802945 2751.18573,88.9057451 2751.85276,92.4651599 C2751.13309,96.0294311 2749.06384,99.7566589 2746.72416,99.7566589 C2743.73302,99.7566589 2742.03107,97.1057811 2742.03107,84.9902898 C2742.03107,77.922402 2742.24284,74.849114 2742.34695,69.7377443 C2742.40735,66.7933737 2742.52403,64.5317212 2742.51743,64.0191992 C2742.49544,62.4457057 2739.77993,61.6526412 2738.5165,61.3589236 C2737.19442,61.0526155 2736.05301,60.9399308 2735.17659,61.0046368 C2734.02024,61.0909715 2733.20723,62.1286058 2733.20723,62.9024698 L2733.20723,64.6857745 C2731.6369,62.2130968 2729.11121,60.4921599 2727.43075,59.9933993 C2722.9046,58.6470755 2718.20792,59.8597605 2714.61918,64.8350165 C2712.27892,68.0791301 2710.38431,71.6757319 2709.40921,79.6373584 C2709.12744,81.9381358 2709.003,84.0926345 2709.01915,86.1064347 C2708.08592,91.8251595 2703.96414,98.4163138 2700.59255,98.4163138 C2698.6196,98.4163138 2696.74057,94.5818422 2696.74057,86.40973 C2696.74057,75.524053 2697.41298,60.0251902 2697.52665,58.5314231 C2697.52665,58.5314231 2701.7866,58.458893 2702.61159,58.4492703 C2704.73645,58.425888 2706.66099,58.4762499 2709.49116,58.3311897 C2710.91075,58.2586596 2712.27829,53.1538999 2710.81324,52.5221282 C2710.14921,52.2361897 2705.45612,51.9856395 2703.59567,51.9460694 C2702.03131,51.9105463 2697.67622,51.5876008 2697.67622,51.5876008 C2697.67622,51.5876008 2698.06686,41.3001553 2698.15778,40.2134182 C2698.23497,39.307669 2697.06542,38.8413271 2696.3948,38.5583564 C2694.76407,37.8672297 2693.30498,37.5363252 2691.57552,37.1790707 C2689.18617,36.6851647 2688.1022,37.1682789 2687.89043,39.1889589 C2687.57159,42.2556818 2687.40645,51.2381255 2687.40645,51.2381255 C2685.65307,51.2381255 2679.66361,50.8946755 2677.90965,50.8946755 C2676.28008,50.8946755 2674.52127,57.9170083 2676.77421,58.003298 C2679.36631,58.1040217 2683.88353,58.1909409 2686.87821,58.2814574 C2686.87821,58.2814574 2686.74484,74.0356799 2686.74484,78.8994672 C2686.74484,79.4169353 2686.74933,79.915248 2686.75023,80.3987669 C2685.10208,89.0066037 2679.29693,93.656353 2679.29693,93.656353 C2680.54362,87.9617748 2677.99698,83.6854228 2673.4098,80.0654793 C2671.71978,78.7315193 2668.38346,76.2061415 2664.65053,73.4387569 C2664.65053,73.4387569 2666.81255,71.3035936 2668.72986,67.0080861 C2670.08842,63.965375 2670.14707,60.4832566 2666.81255,59.7154198 C2661.30286,58.4458079 2656.75997,62.5003393 2655.40495,66.8288518 C2654.35508,70.1820528 2654.91504,72.6702888 2656.97173,75.2550217 C2657.12189,75.4438787 2657.28461,75.6368725 2657.45271,75.8310805 C2656.20898,78.2331167 2654.50044,81.467068 2653.05333,83.9749586 C2649.03683,90.9379363 2646.00266,96.4455011 2643.70965,96.4455011 C2641.87667,96.4455011 2641.90121,90.853895 2641.90121,85.618599 C2641.90121,81.1053169 2642.23383,74.3199097 2642.49945,67.2946092 C2642.58736,64.9712184 2641.428,63.6476456 2639.48439,62.4488083 C2638.30349,61.7204948 2635.78314,60.2884641 2634.32348,60.2884641 C2632.13866,60.2884641 2625.83526,60.5863635 2619.87933,77.8493773 C2619.12874,80.0252347 2617.65417,83.9899322 2617.65417,83.9899322 L2617.78108,63.2304515 C2617.78108,62.74374 2617.52237,62.2731713 2616.93001,61.9512601 C2615.92637,61.4051935 2613.24577,60.2884641 2610.86221,60.2884641 C2609.72654,60.2884641 2609.15981,60.8177583 2609.15981,61.8727495 L2608.9519,94.3511219 C2608.9519,96.8188534 2609.01612,99.6977086 2609.25961,100.956845 C2609.50221,102.217556 2609.89523,103.243139 2610.38199,103.853327 C2610.86804,104.462346 2611.43029,104.926934 2612.35728,105.118669 C2613.22006,105.296644 2617.94443,105.904539 2618.18999,104.095469 C2618.48419,101.927435 2618.49545,99.5824159 2620.97622,90.836628 C2624.83826,77.2205734 2629.87366,70.5770787 2632.2408,68.2177152 C2632.65469,67.8053325 2633.12727,67.7807361 2633.10452,68.455675 C2633.00346,71.4408747 2632.64809,78.9001866 2632.40886,85.2373777 C2631.76763,102.196467 2634.84659,105.339856 2639.2466,105.339856 C2642.6128,105.339856 2647.35795,101.988409 2652.44464,93.5047278 C2655.61586,88.217811 2658.69491,83.0338662 2660.90714,79.2975957 C2662.4488,80.7276029 2664.17884,82.266702 2665.90772,83.9108821 C2669.92539,87.731774 2671.2445,91.3624149 2670.3693,94.806717 C2669.69989,97.4397882 2667.17896,100.153349 2662.69225,97.5158706 C2661.38453,96.7464133 2660.82637,96.1519184 2659.51147,95.2844352 C2658.80499,94.8184081 2657.72636,94.6791036 2657.07971,95.1672989 C2655.39988,96.436418 2654.43914,98.0506507 2653.89058,100.049162 C2653.35696,101.993805 2655.30057,103.021772 2657.31539,103.920911 C2659.05024,104.694775 2662.77899,105.396019 2665.15695,105.475878 C2674.42228,105.786368 2681.84448,100.993268 2687.01132,88.6294743 C2687.9362,99.3071343 2691.87251,105.349389 2698.71146,105.349389 C2703.2837,105.349389 2707.86787,99.4274632 2709.87255,93.6017643 C2710.44804,95.9765062 2711.29991,98.0415676 2712.40004,99.7878653 C2717.66982,108.154141 2727.89288,106.353434 2733.02809,99.2491282 C2734.61578,97.0539354 2734.85744,96.2650977 2734.85744,96.2650977 C2735.60641,102.973298 2740.99763,105.317104 2744.08449,105.317104 C2747.54166,105.317104 2751.11124,103.679444 2753.61301,98.0358119 C2753.90618,98.6482932 2754.22619,99.2332103 2754.57559,99.7876855 C2759.84533,108.153961 2770.06844,106.353254 2775.2036,99.2489484 C2775.44588,98.9157057 2775.65585,98.6133996 2775.83953,98.342075 L2775.99026,102.748334 C2775.99026,102.748334 2773.06074,105.44112 2771.26249,107.093034 C2763.34796,114.36893 2757.32983,119.889085 2756.88713,126.317373 C2756.31883,134.513991 2762.95314,137.5603 2767.97225,137.959507 C2773.30244,138.383356 2777.86692,135.433005 2780.67258,131.304007 C2783.14025,127.669724 2784.7555,119.847716 2784.63703,112.122251 C2784.58977,109.028638 2784.512,105.095107 2784.45097,100.878739 C2787.23272,97.6418203 2790.36683,93.550683 2793.25269,88.761854 C2796.39757,83.5430606 2799.76795,76.5346628 2801.49382,71.0804276 C2801.49382,71.0804276 2804.42218,71.1056085 2807.54727,70.9006088 C2808.54692,70.8352732 2808.83408,71.0396435 2808.64923,71.7739825 C2808.42607,72.6611157 2804.70094,87.0582739 2808.10063,96.6491519 C2810.42774,103.214721 2815.67361,105.327086 2818.78376,105.327086 C2822.42456,105.327086 2825.90744,102.572067 2827.7739,98.4810198 C2827.99881,98.9371095 2828.23392,99.3784503 2828.49056,99.7858868 C2833.76034,108.152162 2843.94755,106.340664 2849.11861,99.2471497 C2850.28573,97.6467216 2850.94796,96.2631192 2850.94796,96.2631192 C2852.05769,103.205727 2857.4459,105.350468 2860.53213,105.350468 C2863.74702,105.350468 2866.79797,104.029863 2869.27344,98.1609072 C2869.37693,100.745011 2869.53965,102.858006 2869.79687,103.524176 C2869.95362,103.931568 2870.86711,104.443011 2871.53172,104.690008 C2874.4726,105.782771 2877.47212,105.266022 2878.58181,105.041238 C2879.35053,104.885341 2879.94997,104.267374 2880.03192,102.671622 C2880.24728,98.4816494 2880.11507,91.4418698 2881.38272,86.2100362 C2883.51063,77.4295751 2885.49552,74.0236291 2886.43714,72.3374508 C2886.96416,71.3927161 2887.55881,71.2368642 2887.58035,72.2367271 C2887.62478,74.2597902 2887.72512,80.2007818 2888.54948,88.1827825 C2889.15485,94.0532675 2889.96369,97.5231102 2890.58522,98.6212686 C2892.35897,101.761691 2894.54966,101.910393 2896.3336,101.910393 C2897.46841,101.910393 2899.84157,101.596171 2899.62922,99.5977043 C2899.52574,98.6236069 2899.70699,92.6035202 2901.80497,83.9531501 C2903.17488,78.3041629 2905.45892,73.1999427 2906.2827,71.3339456 C2906.58659,70.6457867 2906.72777,71.188256 2906.72297,71.2939259 C2906.54948,75.1842453 2906.16005,87.9089848 2907.74174,94.8683653 C2909.8858,104.296197 2916.08819,105.351188 2918.24958,105.351188 C2922.86369,105.351188 2926.63732,101.834221 2927.90856,92.5803178 C2928.21483,90.353334 2927.76136,88.633746 2926.4028,88.633746" id="Shape" fill="#000000" fill-rule="nonzero"></path>
            </g>
        </g>
    </g>
</svg>